<?xml version="1.0" standalone="no"?>
<!DOCTYPE svg PUBLIC "-//W3C//DTD SVG 20010904//EN"
 "http://www.w3.org/TR/2001/REC-SVG-20010904/DTD/svg10.dtd">
<svg version="1.0" xmlns="http://www.w3.org/2000/svg"
 width="156.000000pt" height="156.000000pt" viewBox="0 0 156.000000 156.000000"
 preserveAspectRatio="xMidYMid meet">
<metadata>
Created by potrace 1.11, written by Peter Selinger 2001-2013
</metadata>
<g transform="translate(0.000000,156.000000) scale(0.100000,-0.100000)"
fill="#000000" stroke="none">
<path d="M673 1489 c-84 -13 -194 -51 -260 -91 -128 -77 -242 -211 -296 -348
-38 -97 -49 -154 -49 -260 -1 -273 146 -512 389 -634 95 -48 169 -67 284 -73
125 -7 223 14 349 74 79 38 107 59 180 132 135 136 197 275 207 462 15 289
-133 543 -389 668 -46 23 -109 47 -140 55 -77 20 -200 27 -275 15z m-263 -339
c24 -47 24 -50 5 -50 -13 0 -15 -20 -15 -120 l0 -121 62 51 c35 27 66 50 70
50 24 0 -1 -32 -62 -80 l-69 -55 -1 -84 0 -84 60 7 c48 6 60 4 60 -7 0 -10
-18 -16 -60 -21 l-60 -7 0 -89 0 -90 354 0 c297 0 355 2 358 14 2 11 12 10 48
-9 l44 -22 -43 -23 c-40 -20 -45 -20 -53 -6 -8 14 -50 16 -373 16 l-365 0 0
340 c0 294 -2 340 -15 340 -12 0 -11 8 7 45 12 25 23 45 25 45 1 0 12 -18 23
-40z m741 -127 c-16 -31 -59 -65 -71 -58 -8 5 -1 18 21 41 36 37 67 47 50 17z
m-546 -9 c19 -20 16 -43 -7 -58 -21 -13 -51 2 -56 26 -3 16 23 48 38 48 5 0
16 -7 25 -16z m466 -70 c17 -21 0 -49 -31 -49 -31 0 -48 28 -31 49 8 9 21 16
31 16 10 0 23 -7 31 -16z m-383 -53 c35 -40 48 -62 40 -67 -13 -8 -120 105
-112 118 10 15 20 8 72 -51z m257 29 c14 -44 -44 -69 -65 -29 -9 15 -8 24 1
35 18 21 57 18 64 -6z m-75 -52 c0 -14 -40 -58 -52 -58 -15 0 -8 23 14 47 24
25 38 29 38 11z m150 4 c0 -4 -7 -18 -16 -31 -16 -22 -16 -25 0 -52 19 -32 3
-53 -18 -23 -7 9 -18 14 -24 10 -19 -12 -35 4 -21 20 9 11 9 21 0 40 -11 25
-10 26 14 20 18 -5 27 -2 31 9 6 15 34 21 34 7z m-220 -71 c13 -25 4 -48 -21
-54 -20 -5 -49 16 -49 37 0 35 53 48 70 17z m141 -57 c9 -11 10 -20 2 -32 -15
-24 -44 -27 -59 -7 -28 38 27 75 57 39z m209 2 c0 -15 -48 -31 -59 -21 -7 8
28 35 46 35 7 0 13 -6 13 -14z m-86 -12 c20 -19 20 -38 1 -54 -18 -15 -45 -10
-59 12 -8 13 -6 22 8 37 23 25 30 26 50 5z m-466 -36 c19 -19 14 -56 -8 -63
-41 -13 -69 43 -32 64 22 13 26 13 40 -1z m252 -68 c-22 -28 -36 -38 -43 -31
-6 6 1 23 23 51 22 28 36 38 43 31 6 -6 -1 -23 -23 -51z m-127 -46 c-4 -11
-15 -8 -52 13 -25 15 -48 28 -50 29 -1 2 0 8 4 14 10 16 105 -38 98 -56z m78
-10 c17 -21 0 -49 -31 -49 -31 0 -48 28 -31 49 8 9 21 16 31 16 10 0 23 -7 31
-16z"/>
</g>
</svg>
